<svg width="22" height="28" viewBox="0 0 22 28" fill="none" xmlns="http://www.w3.org/2000/svg">
<path d="M21.6665 14.014C21.6665 13.6603 21.526 13.3212 21.276 13.0711C21.0259 12.8211 20.6868 12.6806 20.3332 12.6806L10.2132 12.6806L13.2798 9.62729C13.4048 9.50334 13.504 9.35587 13.5717 9.19339C13.6394 9.03091 13.6742 8.85664 13.6742 8.68062C13.6742 8.50461 13.6394 8.33033 13.5717 8.16785C13.504 8.00537 13.4048 7.85791 13.2798 7.73396C13.1559 7.60899 13.0084 7.50979 12.8459 7.4421C12.6835 7.37441 12.5092 7.33956 12.3332 7.33956C12.1572 7.33956 11.9829 7.37441 11.8204 7.4421C11.6579 7.50979 11.5105 7.60899 11.3865 7.73396L6.05317 13.0673C5.93178 13.1941 5.83663 13.3436 5.77317 13.5073C5.63982 13.8319 5.63982 14.196 5.77317 14.5206C5.83663 14.6843 5.93178 14.8338 6.05317 14.9606L11.3865 20.294C11.5108 20.4183 11.6584 20.5169 11.8208 20.5842C11.9833 20.6514 12.1574 20.6861 12.3332 20.6861C12.509 20.6861 12.6831 20.6514 12.8455 20.5842C13.0079 20.5169 13.1555 20.4183 13.2798 20.294C13.4042 20.1696 13.5028 20.0221 13.5701 19.8596C13.6373 19.6972 13.672 19.5231 13.672 19.3473C13.672 19.1715 13.6373 18.9974 13.5701 18.835C13.5028 18.6725 13.4042 18.5249 13.2798 18.4006L10.2132 15.3473L20.3332 15.3473C20.6868 15.3473 21.0259 15.2068 21.276 14.9568C21.526 14.7067 21.6665 14.3676 21.6665 14.014ZM4.33317 27.3473L17.6665 27.3473C18.7274 27.3473 19.7448 26.9259 20.4949 26.1757C21.2451 25.4256 21.6665 24.4082 21.6665 23.3473L21.6665 19.3473C21.6665 18.9937 21.526 18.6545 21.276 18.4045C21.0259 18.1544 20.6868 18.014 20.3332 18.014C19.9795 18.014 19.6404 18.1544 19.3904 18.4045C19.1403 18.6545 18.9998 18.9937 18.9998 19.3473L18.9998 23.3473C18.9998 23.7009 18.8594 24.0401 18.6093 24.2901C18.3593 24.5401 18.0201 24.6806 17.6665 24.6806L4.33317 24.6806C3.97955 24.6806 3.64041 24.5401 3.39036 24.2901C3.14031 24.04 2.99984 23.7009 2.99984 23.3473L2.99984 4.68062C2.99984 4.327 3.14031 3.98786 3.39036 3.73781C3.64041 3.48776 3.97955 3.34729 4.33317 3.34729L17.6665 3.34729C18.0201 3.34729 18.3593 3.48776 18.6093 3.73781C18.8594 3.98786 18.9998 4.327 18.9998 4.68062L18.9998 8.68062C18.9998 9.03424 19.1403 9.37338 19.3904 9.62343C19.6404 9.87348 19.9796 10.014 20.3332 10.014C20.6868 10.014 21.0259 9.87348 21.276 9.62343C21.526 9.37338 21.6665 9.03424 21.6665 8.68062L21.6665 4.68062C21.6665 3.61976 21.2451 2.60234 20.4949 1.8522C19.7448 1.10205 18.7274 0.680622 17.6665 0.680622L4.33317 0.680621C3.27231 0.68062 2.25489 1.10205 1.50475 1.85219C0.754601 2.60234 0.333174 3.61975 0.333174 4.68062L0.333172 23.3473C0.333172 24.4082 0.754599 25.4256 1.50474 26.1757C2.25489 26.9259 3.27231 27.3473 4.33317 27.3473Z" fill="#E6E6E6"/>
</svg>
