<svg width="24" height="25" viewBox="0 0 24 25" fill="none" xmlns="http://www.w3.org/2000/svg">
<g clip-path="url(#clip0_292_1985)">
<path d="M12 24.6536C18.6274 24.6536 24 19.281 24 12.6536C24 6.02615 18.6274 0.653564 12 0.653564C5.37258 0.653564 0 6.02615 0 12.6536C0 19.281 5.37258 24.6536 12 24.6536Z" fill="#F0F0F0"/>
<path d="M12.0002 0.653564C7.24267 0.653564 3.13192 3.42224 1.19092 7.43619H22.8094C20.8685 3.42224 16.7577 0.653564 12.0002 0.653564Z" fill="#FF9811"/>
<path d="M12.0002 24.6536C16.7577 24.6536 20.8685 21.8849 22.8095 17.871H1.19092C3.13192 21.8849 7.24267 24.6536 12.0002 24.6536Z" fill="#6DA544"/>
<path d="M12.0001 16.8274C14.3052 16.8274 16.174 14.9587 16.174 12.6535C16.174 10.3483 14.3052 8.47961 12.0001 8.47961C9.69489 8.47961 7.82617 10.3483 7.82617 12.6535C7.82617 14.9587 9.69489 16.8274 12.0001 16.8274Z" fill="#0052B4"/>
<path d="M11.9998 15.2623C13.4405 15.2623 14.6085 14.0943 14.6085 12.6536C14.6085 11.2129 13.4405 10.0449 11.9998 10.0449C10.5591 10.0449 9.39111 11.2129 9.39111 12.6536C9.39111 14.0943 10.5591 15.2623 11.9998 15.2623Z" fill="#F0F0F0"/>
<path d="M12.0002 9.43445L12.805 11.2597L14.788 11.044L13.6097 12.6535L14.788 14.2631L12.805 14.0474L12.0002 15.8726L11.1954 14.0474L9.2124 14.263L10.3907 12.6535L9.2124 11.044L11.1954 11.2597L12.0002 9.43445Z" fill="#0052B4"/>
</g>
<defs>
<clipPath id="clip0_292_1985">
<rect width="24" height="24" fill="white" transform="translate(0 0.653564)"/>
</clipPath>
</defs>
</svg>
