<svg width="24" height="26" viewBox="0 0 24 26" fill="none" xmlns="http://www.w3.org/2000/svg">
<path fill-rule="evenodd" clip-rule="evenodd" d="M2.45687 25.8286C1.62961 25.8286 0.958985 25.1579 0.958985 24.3307L0.958984 1.69478C0.958984 0.867525 1.62961 0.196899 2.45687 0.196899C3.28412 0.196899 3.95475 0.867525 3.95475 1.69478L3.95475 24.3307C3.95475 25.1579 3.28413 25.8286 2.45687 25.8286Z" fill="#808080"/>
<path fill-rule="evenodd" clip-rule="evenodd" d="M9.76052 25.8286C8.93326 25.8286 8.26264 25.1579 8.26264 24.3307L8.26263 1.69478C8.26263 0.867525 8.93326 0.196899 9.76052 0.196899C10.5878 0.196899 11.2584 0.867525 11.2584 1.69478L11.2584 24.3307C11.2584 25.1579 10.5878 25.8286 9.76052 25.8286Z" fill="#808080"/>
<path fill-rule="evenodd" clip-rule="evenodd" d="M21.9301 25.7796C21.131 25.9937 20.3097 25.5195 20.0955 24.7204L14.2369 2.8558C14.0228 2.05673 14.497 1.23539 15.2961 1.02128C16.0952 0.807165 16.9165 1.28137 17.1306 2.08044L22.9892 23.945C23.2033 24.7441 22.7291 25.5654 21.9301 25.7796Z" fill="#808080"/>
</svg>
