<svg width="390" height="147" viewBox="0 0 390 147" fill="none" xmlns="http://www.w3.org/2000/svg">
<path d="M190.983 101.491C191.094 101.454 191.279 101.436 191.537 101.436C192.091 101.436 192.516 101.621 192.812 101.99C193.107 102.36 193.255 102.858 193.255 103.486C193.255 104.632 193.034 105.537 192.59 106.202C192.147 106.83 191.482 107.292 190.595 107.587C188.896 108.141 187.085 108.419 185.164 108.419C183.539 108.419 182.006 108.197 180.565 107.754C179.493 109.49 178.311 111.282 177.018 113.129C175.54 115.235 174.266 116.676 173.194 117.452C172.16 118.227 170.978 118.615 169.648 118.615C168.17 118.615 167.043 118.043 166.267 116.897C165.528 115.752 165.066 113.868 164.882 111.245L164.605 107.199C163.459 110.303 162.425 112.667 161.501 114.293C160.615 115.918 159.709 117.045 158.786 117.673C157.899 118.301 156.846 118.615 155.627 118.615C154.112 118.615 152.912 118.024 152.025 116.842C151.175 115.66 150.639 113.794 150.418 111.245C149.974 106.073 149.753 101.547 149.753 97.6676V95.728C149.79 94.5089 150.122 93.6591 150.75 93.1789C151.378 92.6986 152.32 92.4584 153.577 92.4584C154.537 92.4584 155.239 92.6801 155.682 93.1234C156.163 93.5298 156.403 94.2318 156.403 95.2293C156.403 99.4779 156.661 105.001 157.179 111.799C159.691 106.516 162 101.011 164.106 95.2847C164.512 94.1764 164.992 93.4375 165.547 93.068C166.138 92.6616 166.84 92.4584 167.653 92.4584C168.65 92.4584 169.333 92.6616 169.703 93.068C170.109 93.4744 170.313 94.1948 170.313 95.2293C170.313 99.4779 170.571 105.001 171.088 111.799C173.305 108.511 174.968 105.888 176.076 103.93C175.522 102.858 175.245 101.584 175.245 100.106C175.245 98.8499 175.522 97.6307 176.076 96.4485C176.63 95.2662 177.387 94.3057 178.348 93.5668C179.309 92.8279 180.398 92.4584 181.618 92.4584C182.689 92.4584 183.557 92.8464 184.222 93.6222C184.887 94.3611 185.22 95.451 185.22 96.8918C185.22 98.5543 184.776 100.457 183.89 102.6C185.294 102.526 187.159 102.249 189.487 101.769L190.983 101.491Z" fill="#1ED760"/>
<path d="M213.161 105.98C213.641 105.98 214.011 106.202 214.269 106.645C214.565 107.089 214.713 107.698 214.713 108.474C214.713 109.952 214.362 111.097 213.66 111.91C212.293 113.572 210.353 115.106 207.841 116.509C205.365 117.913 202.706 118.615 199.861 118.615C195.982 118.615 192.971 117.562 190.828 115.457C188.685 113.351 187.614 110.469 187.614 106.811C187.614 104.262 188.149 101.898 189.221 99.7181C190.292 97.5014 191.77 95.7465 193.654 94.4534C195.575 93.1604 197.736 92.5138 200.138 92.5138C202.281 92.5138 203.999 93.1604 205.292 94.4534C206.585 95.7096 207.231 97.4275 207.231 99.6072C207.231 102.156 206.308 104.355 204.46 106.202C202.65 108.012 199.565 109.453 195.206 110.524C196.129 112.224 197.884 113.074 200.47 113.074C202.133 113.074 204.017 112.501 206.123 111.356C208.266 110.173 210.113 108.64 211.665 106.756C212.108 106.239 212.607 105.98 213.161 105.98ZM199.196 97.9447C197.829 97.9447 196.665 98.739 195.704 100.328C194.781 101.916 194.319 103.837 194.319 106.091V106.202C196.499 105.685 198.217 104.909 199.473 103.874C200.729 102.84 201.357 101.639 201.357 100.272C201.357 99.5703 201.154 99.0161 200.747 98.6097C200.378 98.1664 199.861 97.9447 199.196 97.9447Z" fill="#1ED760"/>
<path d="M234.916 105.98C235.397 105.98 235.766 106.202 236.025 106.645C236.32 107.089 236.468 107.698 236.468 108.474C236.468 109.952 236.117 111.097 235.415 111.91C234.048 113.572 232.109 115.106 229.596 116.509C227.121 117.913 224.461 118.615 221.616 118.615C217.737 118.615 214.726 117.562 212.583 115.457C210.44 113.351 209.369 110.469 209.369 106.811C209.369 104.262 209.905 101.898 210.976 99.7181C212.048 97.5014 213.525 95.7465 215.41 94.4534C217.331 93.1604 219.492 92.5138 221.893 92.5138C224.036 92.5138 225.754 93.1604 227.047 94.4534C228.34 95.7096 228.987 97.4275 228.987 99.6072C228.987 102.156 228.063 104.355 226.216 106.202C224.406 108.012 221.321 109.453 216.961 110.524C217.885 112.224 219.64 113.074 222.226 113.074C223.888 113.074 225.773 112.501 227.878 111.356C230.021 110.173 231.868 108.64 233.42 106.756C233.863 106.239 234.362 105.98 234.916 105.98ZM220.951 97.9447C219.584 97.9447 218.421 98.739 217.46 100.328C216.536 101.916 216.075 103.837 216.075 106.091V106.202C218.254 105.685 219.972 104.909 221.228 103.874C222.485 102.84 223.113 101.639 223.113 100.272C223.113 99.5703 222.909 99.0161 222.503 98.6097C222.134 98.1664 221.616 97.9447 220.951 97.9447Z" fill="#1ED760"/>
<path d="M239.604 88.8563C238.052 88.8563 236.888 88.5053 236.112 87.8034C235.336 87.0645 234.948 86.0485 234.948 84.7554C234.948 83.4624 235.447 82.391 236.445 81.5412C237.479 80.6546 238.754 80.2112 240.269 80.2112C241.635 80.2112 242.744 80.5437 243.594 81.2087C244.443 81.8737 244.868 82.8158 244.868 84.035C244.868 85.5128 244.388 86.695 243.427 87.5817C242.467 88.4314 241.192 88.8563 239.604 88.8563ZM234.283 118.615C233.101 118.615 232.288 118.375 231.845 117.895C231.402 117.415 231.18 116.657 231.18 115.623C231.18 115.327 231.217 114.81 231.291 114.071C231.882 107.31 232.861 101.159 234.228 95.6172C234.524 94.4719 235.004 93.6776 235.669 93.2343C236.371 92.754 237.479 92.5138 238.994 92.5138C240.583 92.5138 241.377 93.1604 241.377 94.4534C241.377 94.6382 241.34 94.9891 241.266 95.5064C239.604 103.413 238.606 110.044 238.273 115.401C238.2 116.583 237.849 117.415 237.221 117.895C236.592 118.375 235.613 118.615 234.283 118.615Z" fill="#1ED760"/>
<path fill-rule="evenodd" clip-rule="evenodd" d="M283.774 116.691C275.283 127.283 267.506 136.72 260.577 141.554C255.107 145.369 250.044 147.145 245.431 146.534C240.653 145.901 237.354 142.855 235.21 139.272C233.101 135.749 231.895 131.398 231.23 127.212C230.557 122.979 230.396 118.643 230.541 114.96C230.625 112.819 232.429 111.152 234.57 111.236C236.711 111.321 238.378 113.124 238.293 115.265C238.165 118.524 238.312 122.343 238.892 125.995C239.479 129.692 240.471 132.955 241.867 135.288C243.228 137.562 244.743 138.616 246.45 138.842C248.322 139.09 251.416 138.484 256.138 135.19C261.948 131.138 268.977 122.745 277.721 111.838C278.661 110.666 279.617 109.469 280.589 108.252C288.493 98.3608 297.496 87.095 307.623 76.4716C330.294 52.6918 359.497 31.1659 396.502 35.3402C415.05 37.4326 427.162 45.05 435.88 55.1159C443.646 64.0825 448.654 74.9558 453.215 84.8605C453.667 85.8412 454.114 86.8125 454.559 87.7714C459.639 98.7159 464.398 107.952 471.905 113.747C479.114 119.313 489.481 122.118 506.823 118.475C508.919 118.034 510.976 119.377 511.416 121.474C511.857 123.57 510.514 125.627 508.417 126.068C489.574 130.026 476.682 127.237 467.164 119.889C457.943 112.77 452.505 101.773 447.522 91.038C447.085 90.0977 446.652 89.1579 446.219 88.2198C441.572 78.1491 437.02 68.2824 430.016 60.1953C422.542 51.5664 412.198 44.9184 395.632 43.0497C362.407 39.3018 335.496 58.4787 313.239 81.8251C303.361 92.1864 294.576 103.179 286.652 113.094C285.68 114.31 284.721 115.51 283.774 116.691Z" fill="#1ED760"/>
<path fill-rule="evenodd" clip-rule="evenodd" d="M-87.4547 0.904579C-86.1179 -0.354485 -84.0136 -0.29148 -82.7545 1.0453C-64.2935 20.6459 -43.5218 31.707 -17.5194 35.5955C8.62642 39.5054 40.2303 36.1884 80.3223 26.6315C96.8615 22.689 110.088 23.1896 120.612 26.8898C131.173 30.6029 138.713 37.4334 144.024 45.5947C154.525 61.7303 156.409 83.2026 156.409 97.0782C156.409 98.9145 154.92 100.403 153.084 100.403C151.248 100.403 149.759 98.9145 149.759 97.0782C149.759 83.4676 147.846 63.6586 138.45 49.222C133.814 42.0972 127.381 36.3188 118.406 33.1634C109.395 29.9952 97.5232 29.3676 81.8643 33.1003C41.4607 42.7315 8.88444 46.268 -18.503 42.1724C-46.0339 38.0554 -68.1486 26.2521 -87.5954 5.60478C-88.8545 4.26799 -88.7915 2.16364 -87.4547 0.904579Z" fill="#1ED760"/>
</svg>
