<svg width="51" height="50" viewBox="0 0 51 50" fill="none" xmlns="http://www.w3.org/2000/svg">
<path fill-rule="evenodd" clip-rule="evenodd" d="M25.2016 0.0273438C11.2293 0.0273438 0.398438 10.2621 0.398438 24.0864C0.398438 31.3175 3.36192 37.5659 8.18803 41.8818C8.59317 42.2444 8.83773 42.7523 8.85434 43.296L8.98942 47.708C9.03258 49.1154 10.4862 50.0311 11.774 49.4626L16.6971 47.2893C17.1145 47.1053 17.5821 47.0711 18.0219 47.1921C20.2842 47.8142 22.692 48.1456 25.2016 48.1456C39.174 48.1456 50.0048 37.9108 50.0048 24.0864C50.0048 10.2621 39.174 0.0273438 25.2016 0.0273438Z" fill="url(#paint0_radial_292_322)"/>
<path fill-rule="evenodd" clip-rule="evenodd" d="M10.3077 31.122L17.5936 19.5627C18.7526 17.7238 21.2344 17.2659 22.9733 18.5701L28.7682 22.9162C29.2999 23.3151 30.0314 23.3129 30.5609 22.9111L38.3871 16.9715C39.4318 16.1788 40.7953 17.4289 40.0962 18.5382L32.8103 30.0976C31.6512 31.9364 29.1694 32.3944 27.4306 31.0901L21.6356 26.7439C21.1039 26.3451 20.3723 26.3473 19.8429 26.7491L12.0166 32.6887C10.9721 33.4814 9.60849 32.2313 10.3077 31.122Z" fill="white"/>
<defs>
<radialGradient id="paint0_radial_292_322" cx="0" cy="0" r="1" gradientUnits="userSpaceOnUse" gradientTransform="translate(9.9464 49.3684) scale(54.0509 54.0508)">
<stop stop-color="#0099FF"/>
<stop offset="0.609754" stop-color="#A033FF"/>
<stop offset="0.934823" stop-color="#FF5280"/>
<stop offset="1" stop-color="#FF7061"/>
</radialGradient>
</defs>
</svg>
