<svg class="svg-icon" style="width: 1em; height: 1em;vertical-align: middle;fill: currentColor;overflow: hidden;" viewBox="0 0 1024 1024" version="1.1" xmlns="http://www.w3.org/2000/svg"><path d="M485.74049233 262.40677683m-172.281776 0a172.28177683 172.28177683 0 1 0 344.56355282 0 172.28177683 172.28177683 0 1 0-344.56355282 0Z"  /><path d="M775.60458135 589.31144717a172.28177683 172.28177683 0 1 0 172.28177682 172.281776 172.28177683 172.28177683 0 0 0-172.28177682-172.281776zM871.22096724 736.18166165l-104.23047436 104.23047437a21.96592629 21.96592629 0 0 1-30.14931089 0L678.69608214 783.5591503a21.53522242 21.53522242 0 0 1 0-30.5800156 21.96592629 21.96592629 0 0 1 30.58001559 0l43.070444 43.07044401 88.72511463-89.15581934a21.53522242 21.53522242 0 1 1 30.58001559 30.58001559z"  /><path d="M767.85190147 546.24100318a227.84264923 227.84264923 0 0 1 64.60566641 10.7676112A129.211332 129.211332 0 0 0 721.76652615 494.98717459H247.99164132a129.211332 129.211332 0 0 0-129.21133284 129.211332V822.32254965h443.62557477a203.72320103 203.72320103 0 0 1-9.9062026-60.72932648 215.35222083 215.35222083 0 0 1 215.35222082-215.35221999z"  /></svg>