<svg width="26" height="26" viewBox="0 0 26 26" fill="none" xmlns="http://www.w3.org/2000/svg">
<path d="M13.0002 0.513916C10.5758 0.518522 8.20504 1.22805 6.17672 2.55609C4.1484 3.88412 2.55005 5.77334 1.57636 7.99363C0.602666 10.2139 0.295653 12.6694 0.692716 15.0611C1.08978 17.4528 2.17378 19.6774 3.81268 21.4639C4.98321 22.7327 6.40386 23.7453 7.98511 24.4379C9.56635 25.1305 11.2739 25.4881 13.0002 25.4881C14.7265 25.4881 16.434 25.1305 18.0153 24.4379C19.5965 23.7453 21.0172 22.7327 22.1877 21.4639C23.8266 19.6774 24.9106 17.4528 25.3077 15.0611C25.7047 12.6694 25.3977 10.2139 24.424 7.99363C23.4503 5.77334 21.852 3.88412 19.8236 2.55609C17.7953 1.22805 15.4246 0.518522 13.0002 0.513916ZM13.0002 23.0139C10.4108 23.01 7.92383 22.0018 6.06268 20.2014C6.62774 18.8258 7.58897 17.6493 8.82425 16.8213C10.0595 15.9933 11.5131 15.5512 13.0002 15.5512C14.4873 15.5512 15.9408 15.9933 17.1761 16.8213C18.4114 17.6493 19.3726 18.8258 19.9377 20.2014C18.0765 22.0018 15.5896 23.01 13.0002 23.0139ZM10.5002 10.5139C10.5002 10.0195 10.6468 9.53611 10.9215 9.12499C11.1962 8.71387 11.5867 8.39344 12.0435 8.20422C12.5003 8.015 13.003 7.96549 13.4879 8.06195C13.9729 8.15842 14.4183 8.39652 14.7679 8.74615C15.1176 9.09578 15.3557 9.54124 15.4521 10.0262C15.5486 10.5111 15.4991 11.0138 15.3099 11.4706C15.1207 11.9274 14.8002 12.3179 14.3891 12.5926C13.978 12.8673 13.4946 13.0139 13.0002 13.0139C12.3371 13.0139 11.7013 12.7505 11.2324 12.2817C10.7636 11.8128 10.5002 11.177 10.5002 10.5139ZM21.6377 18.0139C20.5208 16.1036 18.8019 14.6177 16.7502 13.7889C17.3866 13.0672 17.8013 12.1772 17.9445 11.2257C18.0877 10.2742 17.9533 9.30156 17.5574 8.42454C17.1615 7.54752 16.5209 6.80336 15.7126 6.28137C14.9042 5.75938 13.9624 5.48173 13.0002 5.48173C12.0379 5.48173 11.0961 5.75938 10.2878 6.28137C9.47945 6.80336 8.8389 7.54752 8.44299 8.42454C8.04709 9.30156 7.91267 10.2742 8.05584 11.2257C8.19902 12.1772 8.61372 13.0672 9.25018 13.7889C7.19843 14.6177 5.47952 16.1036 4.36268 18.0139C3.47261 16.4978 3.00233 14.772 3.00018 13.0139C3.00018 10.3618 4.05375 7.81821 5.92912 5.94285C7.80448 4.06748 10.348 3.01392 13.0002 3.01392C15.6523 3.01392 18.1959 4.06748 20.0713 5.94285C21.9466 7.81821 23.0002 10.3618 23.0002 13.0139C22.998 14.772 22.5278 16.4978 21.6377 18.0139Z" fill="#808080"/>
</svg>
