<svg width="50" height="50" viewBox="0 0 50 50" fill="none" xmlns="http://www.w3.org/2000/svg">
<circle cx="24.8478" cy="25.213" r="24.6896" fill="#3282B7"/>
<path d="M30.432 21.5131H19.2612C18.9649 21.5131 18.6808 21.6308 18.4713 21.8403C18.2618 22.0498 18.1441 22.3339 18.1441 22.6302C18.1441 22.9265 18.2618 23.2106 18.4713 23.4201C18.6808 23.6296 18.9649 23.7473 19.2612 23.7473H30.432C30.7283 23.7473 31.0124 23.6296 31.2219 23.4201C31.4314 23.2106 31.5491 22.9265 31.5491 22.6302C31.5491 22.3339 31.4314 22.0498 31.2219 21.8403C31.0124 21.6308 30.7283 21.5131 30.432 21.5131ZM30.432 25.9815H19.2612C18.9649 25.9815 18.6808 26.0991 18.4713 26.3086C18.2618 26.5181 18.1441 26.8023 18.1441 27.0985C18.1441 27.3948 18.2618 27.6789 18.4713 27.8884C18.6808 28.0979 18.9649 28.2156 19.2612 28.2156H30.432C30.7283 28.2156 31.0124 28.0979 31.2219 27.8884C31.4314 27.6789 31.5491 27.3948 31.5491 27.0985C31.5491 26.8023 31.4314 26.5181 31.2219 26.3086C31.0124 26.0991 30.7283 25.9815 30.432 25.9815ZM32.6661 15.9277H17.027C16.1382 15.9277 15.2858 16.2808 14.6573 16.9093C14.0289 17.5378 13.6758 18.3902 13.6758 19.279V30.4498C13.6758 31.3386 14.0289 32.191 14.6573 32.8195C15.2858 33.4479 16.1382 33.801 17.027 33.801H29.974L34.1072 37.9454C34.2116 38.0489 34.3354 38.1308 34.4715 38.1864C34.6076 38.242 34.7533 38.2702 34.9003 38.2693C35.0468 38.2731 35.1922 38.2425 35.3248 38.18C35.5288 38.0962 35.7034 37.9539 35.8267 37.771C35.9499 37.5881 36.0163 37.3728 36.0174 37.1523V19.279C36.0174 18.3902 35.6643 17.5378 35.0358 16.9093C34.4074 16.2808 33.555 15.9277 32.6661 15.9277ZM33.7832 34.4601L31.2251 31.8908C31.1207 31.7873 30.9969 31.7054 30.8608 31.6498C30.7247 31.5942 30.579 31.566 30.432 31.5669H17.027C16.7308 31.5669 16.4466 31.4492 16.2371 31.2397C16.0276 31.0302 15.9099 30.746 15.9099 30.4498V19.279C15.9099 18.9827 16.0276 18.6986 16.2371 18.4891C16.4466 18.2796 16.7308 18.1619 17.027 18.1619H32.6661C32.9624 18.1619 33.2465 18.2796 33.456 18.4891C33.6655 18.6986 33.7832 18.9827 33.7832 19.279V34.4601Z" fill="white"/>
</svg>
