<svg width="70" height="29" viewBox="0 0 70 29" fill="none" xmlns="http://www.w3.org/2000/svg">
<path d="M30.26 16.0126C30.34 15.9859 30.4733 15.9726 30.66 15.9726C31.06 15.9726 31.3667 16.1059 31.58 16.3726C31.7933 16.6393 31.9 16.9993 31.9 17.4526C31.9 18.2793 31.74 18.9326 31.42 19.4126C31.1 19.8659 30.62 20.1993 29.98 20.4126C28.7533 20.8126 27.4467 21.0126 26.06 21.0126C24.8867 21.0126 23.78 20.8526 22.74 20.5326C21.9667 21.7859 21.1133 23.0793 20.18 24.4126C19.1133 25.9326 18.1933 26.9726 17.42 27.5326C16.6733 28.0926 15.82 28.3726 14.86 28.3726C13.7933 28.3726 12.98 27.9593 12.42 27.1326C11.8867 26.3059 11.5533 24.9459 11.42 23.0526L11.22 20.1326C10.3933 22.3726 9.64667 24.0793 8.98 25.2526C8.34 26.4259 7.68667 27.2393 7.02 27.6926C6.38 28.1459 5.62 28.3726 4.74 28.3726C3.64667 28.3726 2.78 27.9459 2.14 27.0926C1.52667 26.2393 1.14 24.8926 0.98 23.0526C0.66 19.3193 0.5 16.0526 0.5 13.2526V11.8526C0.526667 10.9726 0.766667 10.3593 1.22 10.0126C1.67333 9.66594 2.35333 9.49261 3.26 9.49261C3.95333 9.49261 4.46 9.65261 4.78 9.97261C5.12667 10.2659 5.3 10.7726 5.3 11.4926C5.3 14.5593 5.48667 18.5459 5.86 23.4526C7.67333 19.6393 9.34 15.6659 10.86 11.5326C11.1533 10.7326 11.5 10.1993 11.9 9.93261C12.3267 9.63927 12.8333 9.49261 13.42 9.49261C14.14 9.49261 14.6333 9.63927 14.9 9.93261C15.1933 10.2259 15.34 10.7459 15.34 11.4926C15.34 14.5593 15.5267 18.5459 15.9 23.4526C17.5 21.0793 18.7 19.1859 19.5 17.7726C19.1 16.9993 18.9 16.0793 18.9 15.0126C18.9 14.1059 19.1 13.2259 19.5 12.3726C19.9 11.5193 20.4467 10.8259 21.14 10.2926C21.8333 9.75927 22.62 9.49261 23.5 9.49261C24.2733 9.49261 24.9 9.77261 25.38 10.3326C25.86 10.8659 26.1 11.6526 26.1 12.6926C26.1 13.8926 25.78 15.2659 25.14 16.8126C26.1533 16.7593 27.5 16.5593 29.18 16.2126L30.26 16.0126ZM46.2678 19.2526C46.6145 19.2526 46.8811 19.4126 47.0678 19.7326C47.2811 20.0526 47.3878 20.4926 47.3878 21.0526C47.3878 22.1193 47.1345 22.9459 46.6278 23.5326C45.6411 24.7326 44.2411 25.8393 42.4278 26.8526C40.6411 27.8659 38.7211 28.3726 36.6678 28.3726C33.8678 28.3726 31.6945 27.6126 30.1478 26.0926C28.6011 24.5726 27.8278 22.4926 27.8278 19.8526C27.8278 18.0126 28.2145 16.3059 28.9878 14.7326C29.7611 13.1326 30.8278 11.8659 32.1878 10.9326C33.5745 9.99927 35.1345 9.53261 36.8678 9.53261C38.4145 9.53261 39.6545 9.99927 40.5878 10.9326C41.5211 11.8393 41.9878 13.0793 41.9878 14.6526C41.9878 16.4926 41.3211 18.0793 39.9878 19.4126C38.6811 20.7193 36.4545 21.7593 33.3078 22.5326C33.9745 23.7593 35.2411 24.3726 37.1078 24.3726C38.3078 24.3726 39.6678 23.9593 41.1878 23.1326C42.7345 22.2793 44.0678 21.1726 45.1878 19.8126C45.5078 19.4393 45.8678 19.2526 46.2678 19.2526ZM36.1878 13.4526C35.2011 13.4526 34.3611 14.0259 33.6678 15.1726C33.0011 16.3193 32.6678 17.7059 32.6678 19.3326V19.4126C34.2411 19.0393 35.4811 18.4793 36.3878 17.7326C37.2945 16.9859 37.7478 16.1193 37.7478 15.1326C37.7478 14.6259 37.6011 14.2259 37.3078 13.9326C37.0411 13.6126 36.6678 13.4526 36.1878 13.4526ZM61.9709 19.2526C62.3176 19.2526 62.5843 19.4126 62.7709 19.7326C62.9843 20.0526 63.0909 20.4926 63.0909 21.0526C63.0909 22.1193 62.8376 22.9459 62.3309 23.5326C61.3443 24.7326 59.9443 25.8393 58.1309 26.8526C56.3443 27.8659 54.4243 28.3726 52.3709 28.3726C49.5709 28.3726 47.3976 27.6126 45.8509 26.0926C44.3043 24.5726 43.5309 22.4926 43.5309 19.8526C43.5309 18.0126 43.9176 16.3059 44.6909 14.7326C45.4643 13.1326 46.5309 11.8659 47.8909 10.9326C49.2776 9.99927 50.8376 9.53261 52.5709 9.53261C54.1176 9.53261 55.3576 9.99927 56.2909 10.9326C57.2243 11.8393 57.6909 13.0793 57.6909 14.6526C57.6909 16.4926 57.0243 18.0793 55.6909 19.4126C54.3843 20.7193 52.1576 21.7593 49.0109 22.5326C49.6776 23.7593 50.9443 24.3726 52.8109 24.3726C54.0109 24.3726 55.3709 23.9593 56.8909 23.1326C58.4376 22.2793 59.7709 21.1726 60.8909 19.8126C61.2109 19.4393 61.5709 19.2526 61.9709 19.2526ZM51.8909 13.4526C50.9043 13.4526 50.0643 14.0259 49.3709 15.1726C48.7043 16.3193 48.3709 17.7059 48.3709 19.3326V19.4126C49.9443 19.0393 51.1843 18.4793 52.0909 17.7326C52.9976 16.9859 53.4509 16.1193 53.4509 15.1326C53.4509 14.6259 53.3043 14.2259 53.0109 13.9326C52.7443 13.6126 52.3709 13.4526 51.8909 13.4526ZM65.3541 6.89261C64.2341 6.89261 63.3941 6.63927 62.8341 6.13261C62.2741 5.59927 61.9941 4.86594 61.9941 3.93261C61.9941 2.99927 62.3541 2.22594 63.0741 1.61261C63.8207 0.972606 64.7407 0.652606 65.8341 0.652606C66.8207 0.652606 67.6207 0.892607 68.2341 1.37261C68.8474 1.85261 69.1541 2.53261 69.1541 3.41261C69.1541 4.47927 68.8074 5.33261 68.1141 5.97261C67.4207 6.58594 66.5007 6.89261 65.3541 6.89261ZM61.5141 28.3726C60.6607 28.3726 60.0741 28.1993 59.7541 27.8526C59.4341 27.5059 59.2741 26.9593 59.2741 26.2126C59.2741 25.9993 59.3007 25.6259 59.3541 25.0926C59.7807 20.2126 60.4874 15.7726 61.4741 11.7726C61.6874 10.9459 62.0341 10.3726 62.5141 10.0526C63.0207 9.70594 63.8207 9.53261 64.9141 9.53261C66.0607 9.53261 66.6341 9.99927 66.6341 10.9326C66.6341 11.0659 66.6074 11.3193 66.5541 11.6926C65.3541 17.3993 64.6341 22.1859 64.3941 26.0526C64.3407 26.9059 64.0874 27.5059 63.6341 27.8526C63.1807 28.1993 62.4741 28.3726 61.5141 28.3726Z" fill="#1ED760"/>
</svg>
