<svg width="50" height="50" viewBox="0 0 50 50" fill="none" xmlns="http://www.w3.org/2000/svg">
<circle cx="24.6865" cy="25.21" r="24.6865" fill="#1ED760"/>
<path d="M18.9759 32.674L19.8468 33.1828C21.3154 34.0393 22.9857 34.489 24.6859 34.4855C26.5891 34.4855 28.4496 33.9211 30.0321 32.8638C31.6145 31.8064 32.8479 30.3035 33.5763 28.5451C34.3046 26.7868 34.4952 24.8519 34.1239 22.9853C33.7526 21.1186 32.8361 19.404 31.4903 18.0582C30.1445 16.7124 28.4299 15.7959 26.5632 15.4246C24.6965 15.0533 22.7617 15.2439 21.0033 15.9722C19.245 16.7005 17.7421 17.9339 16.6847 19.5164C15.6273 21.0989 15.063 22.9594 15.063 24.8626C15.063 26.5899 15.5164 28.2463 16.3669 29.7029L16.8745 30.5738L16.089 33.4619L18.9759 32.674ZM12.6621 36.8912L14.2883 30.9154C13.2167 29.0785 12.6537 26.9893 12.6572 24.8626C12.6572 18.2192 18.0425 12.834 24.6859 12.834C31.3293 12.834 36.7145 18.2192 36.7145 24.8626C36.7145 31.506 31.3293 36.8912 24.6859 36.8912C22.5601 36.8947 20.4718 36.3321 18.6355 35.2614L12.6621 36.8912ZM20.3447 19.2188C20.5059 19.2067 20.6683 19.2067 20.8295 19.214C20.8944 19.2188 20.9594 19.226 21.0244 19.2332C21.2156 19.2549 21.4261 19.3715 21.4971 19.5327C21.8555 20.3459 22.2044 21.165 22.5412 21.9866C22.6157 22.1694 22.5712 22.404 22.4293 22.6325C22.3317 22.787 22.2261 22.9364 22.1129 23.08C21.977 23.2544 21.6847 23.5743 21.6847 23.5743C21.6847 23.5743 21.5656 23.7163 21.6114 23.8931C21.6282 23.9605 21.6835 24.0579 21.734 24.1397L21.805 24.254C22.1129 24.7676 22.5267 25.2884 23.0319 25.7792C23.1763 25.9187 23.317 26.0619 23.4686 26.1954C24.0315 26.6922 24.669 27.0975 25.3571 27.3982L25.3631 27.4006C25.4653 27.4452 25.517 27.4692 25.6662 27.533C25.7408 27.5642 25.8178 27.5919 25.8959 27.6124C25.9767 27.6329 26.0618 27.6291 26.1404 27.6012C26.219 27.5734 26.2876 27.5228 26.3374 27.456C27.2083 26.4011 27.2877 26.3325 27.2949 26.3325V26.3349C27.3554 26.2785 27.4273 26.2357 27.5057 26.2093C27.5841 26.183 27.6673 26.1737 27.7496 26.1821C27.8217 26.187 27.8951 26.2002 27.9625 26.2303C28.6012 26.5226 29.6465 26.9784 29.6465 26.9784L30.3465 27.2924C30.4644 27.3489 30.5715 27.4824 30.5751 27.6111C30.5799 27.6917 30.5871 27.8216 30.5594 28.0598C30.521 28.3714 30.4271 28.7454 30.3333 28.9415C30.2691 29.0753 30.1838 29.198 30.0807 29.3048C29.9593 29.4322 29.8265 29.5482 29.6838 29.6512C29.6344 29.6883 29.5843 29.7244 29.5334 29.7595C29.3838 29.8544 29.2301 29.9427 29.0727 30.0241C28.763 30.1886 28.4209 30.283 28.0707 30.3007C27.8482 30.3128 27.6257 30.3296 27.4019 30.3176C27.3923 30.3176 26.7187 30.2129 26.7187 30.2129C25.0085 29.7631 23.4269 28.9204 22.0997 27.7519C21.8279 27.5125 21.5765 27.2551 21.3191 26.9989C20.2485 25.9344 19.4402 24.7856 18.9494 23.7006C18.6982 23.1681 18.5625 22.5885 18.5513 21.9998C18.5463 21.2695 18.785 20.5584 19.2297 19.979C19.3175 19.8659 19.4005 19.748 19.5436 19.6121C19.6964 19.4678 19.7926 19.3908 19.8973 19.3379C20.0364 19.2681 20.1882 19.2272 20.3435 19.2176L20.3447 19.2188Z" fill="white"/>
</svg>
